<?xml version="1.0" standalone="no"?><!DOCTYPE svg PUBLIC "-//W3C//DTD SVG 1.1//EN" "http://www.w3.org/Graphics/SVG/1.1/DTD/svg11.dtd"><svg t="1766330350849" class="icon" viewBox="0 0 1024 1024" version="1.1" xmlns="http://www.w3.org/2000/svg" p-id="10272" xmlns:xlink="http://www.w3.org/1999/xlink" width="256" height="256"><path d="M1024 320s-161.28 135.04-317.44 127.36C705.92 312.96 664.96 14.72 320 0c0 0 135.04 162.56 125.44 319.36C311.04 320.64 14.72 361.6 0 704c0 0 163.84-135.68 321.28-124.8 1.28 135.04 42.88 430.08 382.72 444.8 0 0-133.76-162.56-124.16-319.36 135.04-1.28 429.44-43.52 444.16-384.64zM512 608c-53.12 0-96-42.88-96-96S458.88 416 512 416s96 42.88 96 96S565.12 608 512 608z" p-id="10273" fill="#dbdbdb"></path></svg>