<?xml version="1.0" standalone="no"?><!DOCTYPE svg PUBLIC "-//W3C//DTD SVG 1.1//EN" "http://www.w3.org/Graphics/SVG/1.1/DTD/svg11.dtd"><svg t="1763643138848" class="icon" viewBox="0 0 1024 1024" version="1.1" xmlns="http://www.w3.org/2000/svg" p-id="8636" xmlns:xlink="http://www.w3.org/1999/xlink" width="256" height="256"><path d="M597.256 853.025l-42.628 42.628h-85.256l-42.628-42.628h-42.628V682.513c0-68.831-127.884-152.332-127.884-298.397 0-141.258 114.512-255.769 255.769-255.769S767.77 242.858 767.77 384.116c0 144.95-127.884 228.675-127.884 298.397v170.512h-42.63zM426.744 695.3v115.097h170.513V695.3H426.744z m174.775-46.889c0-58.102 123.621-143.504 123.621-264.295 0-117.714-95.426-213.141-213.141-213.141s-213.141 95.427-213.141 213.141c0 121.721 123.621 206.937 123.621 264.295h179.04zM448.058 810.397l42.628 42.628h42.628l42.628-42.628H448.058z m30.485-533.678c-10.606 5.109-23.344 0.652-28.452-9.953s-0.652-23.344 9.953-28.452c100.604-48.456 225.859 51.76 217.252 161.476-0.921 11.735-11.181 20.504-22.916 19.583-11.735-0.921-20.502-11.181-19.582-22.916 6.166-78.593-86.968-153.11-156.255-119.738z" fill="" p-id="8637"></path></svg>