<?xml version="1.0" standalone="no"?><!DOCTYPE svg PUBLIC "-//W3C//DTD SVG 1.1//EN" "http://www.w3.org/Graphics/SVG/1.1/DTD/svg11.dtd"><svg t="1769425553417" class="icon" viewBox="0 0 1024 1024" version="1.1" xmlns="http://www.w3.org/2000/svg" p-id="9204" width="256" height="256" xmlns:xlink="http://www.w3.org/1999/xlink"><path d="M611.92892 639.241986 611.92892 389.546064l0-3.843538c63.141062-19.211551 94.709035-46.108131 94.709035-49.948599 11.844769-7.690146 11.844769-23.052019 0-34.574447-7.887644-11.521404-23.682375-11.521404-35.514865 0 0 0-55.250348 49.948599-157.853168 49.948599l0 0 0 0c-106.555851 0-157.856237-46.101991-161.803129-49.948599-11.847839-7.687076-23.679305-7.687076-35.514865 0-7.887644 11.530614-7.887644 23.052019 0 34.583656 0 0 31.577183 30.726815 90.771353 46.105061l0 7.684006 0 253.5456c-59.19417 19.205411-86.820368 46.101991-90.771353 46.101991-7.887644 7.690146-11.847839 23.056112 0 34.574447 3.949962 3.843538 11.841699 7.687076 15.782451 7.687076 3.946892 0 11.847839 0 15.782451-7.687076 0 0 55.250348-49.936319 161.803129-49.936319l0 0 0 0c106.552781 0 157.853168 46.105061 161.803129 49.936319 3.946892 3.843538 11.844769 7.687076 15.782451 7.687076 7.884574 0 11.844769 0 15.785521-7.687076 7.884574-11.518335 7.884574-23.048949 0-34.574447C706.647165 685.347047 675.080216 658.450467 611.92892 639.241986L611.92892 639.241986zM458.023668 389.546064c15.782451 3.840468 35.511795 3.840468 55.247278 3.840468l0 0 0 0c15.782451 0 35.514865 0 47.358611-3.840468l0 238.177588c-15.782451 0-31.577183-3.843538-47.358611-3.843538l0 0 0 0c-19.735483 0-39.464827 0-55.247278 3.843538L458.023668 389.546064 458.023668 389.546064zM458.023668 389.546064" fill="#ffffff" p-id="9205"></path></svg>