<svg t="1783179721228" class="icon" viewBox="0 0 1024 1024" version="1.1" xmlns="http://www.w3.org/2000/svg" p-id="5217" width="256" height="256"><path d="M1024 481.882353c0 132.879059-108.062118 240.941176-240.941176 240.941176a239.736471 239.736471 0 0 1-185.163295-87.461647l-0.12047 0.060236-0.843294-1.084236c-0.662588-0.843294-1.566118-1.385412-2.288941-2.288941l0.240941-0.180706-218.895059-269.974588A180.886588 180.886588 0 0 0 240.941176 301.176471C141.312 301.176471 60.235294 382.253176 60.235294 481.882353s81.076706 180.705882 180.705882 180.705882c55.115294 0 106.556235-24.696471 141.071059-67.764706l0.542118 0.421647 49.212235-60.958117 46.863059 37.827765-49.573647 61.379764-0.602353-0.481882A239.736471 239.736471 0 0 1 240.941176 722.823529c-132.879059 0-240.941176-108.062118-240.941176-240.941176s108.062118-240.941176 240.941176-240.941177c67.463529 0 131.674353 28.732235 177.272471 78.366118l0.481882-0.361412 2.529883 3.132236 222.750117 274.672941A179.681882 179.681882 0 0 0 783.058824 662.588235c99.629176 0 180.705882-81.076706 180.705882-180.705882s-81.076706-180.705882-180.705882-180.705882c-50.959059 0-99.388235 21.805176-133.722353 59.572705l-57.103059 70.776471-46.863059-37.827765 57.103059-70.77647-0.240941-0.180706A241.121882 241.121882 0 0 1 783.058824 240.941176c132.879059 0 240.941176 108.062118 240.941176 240.941177z" p-id="5218" fill="#808080"></path></svg>
