<?xml version="1.0" standalone="no"?><!DOCTYPE svg PUBLIC "-//W3C//DTD SVG 1.1//EN" "http://www.w3.org/Graphics/SVG/1.1/DTD/svg11.dtd"><svg t="1763642822665" class="icon" viewBox="0 0 1024 1024" version="1.1" xmlns="http://www.w3.org/2000/svg" p-id="18326" xmlns:xlink="http://www.w3.org/1999/xlink" width="256" height="256"><path d="M889.6 405.76l-271.36-271.36a21.333333 21.333333 0 0 0-30.293333 0l-115.2 115.2a21.333333 21.333333 0 0 0 0 30.293333l25.173333 25.6-231.68 92.586667A85.333333 85.333333 0 0 0 213.333333 456.533333l-85.333333 343.893334a42.666667 42.666667 0 0 0 11.093333 40.533333l42.666667 42.666667A42.666667 42.666667 0 0 0 213.333333 896a42.666667 42.666667 0 0 0 10.24 0l343.893334-85.333333a85.333333 85.333333 0 0 0 58.453333-51.2l92.586667-231.68 25.6 25.173333a21.333333 21.333333 0 0 0 30.293333 0l115.2-115.2a21.333333 21.333333 0 0 0 0-32z m-341.333333 320.426667l-262.826667 65.28 122.026667-122.026667a27.306667 27.306667 0 0 1 19.2-8.106667A64 64 0 1 0 362.666667 597.333333a27.306667 27.306667 0 0 1-8.106667 19.2l-122.026667 122.026667L298.666667 477.013333l265.813333-106.24 89.6 89.6z" p-id="18327"></path></svg>