<?xml version="1.0" standalone="no"?><!DOCTYPE svg PUBLIC "-//W3C//DTD SVG 1.1//EN" "http://www.w3.org/Graphics/SVG/1.1/DTD/svg11.dtd"><svg t="1766329936552" class="icon" viewBox="0 0 1024 1024" version="1.1" xmlns="http://www.w3.org/2000/svg" p-id="8372" width="256" height="256" xmlns:xlink="http://www.w3.org/1999/xlink"><path d="M330.666667 554.666667a50.346667 50.346667 0 0 1 17.92-39.253334 244.053333 244.053333 0 0 1 88.746666 38.826667 53.333333 53.333333 0 0 1-106.666666 0.426667z m256 0a244.053333 244.053333 0 0 1 88.746666-38.826667c11.562667 9.728 18.133333 24.149333 17.92 39.253333a53.333333 53.333333 0 1 1-106.666666 0V554.666667zM512 384a672.426667 672.426667 0 0 0-338.346667 85.333333L170.666667 512a341.333333 341.333333 0 0 0 35.84 151.04A1992.533333 1992.533333 0 0 1 512 640a1992.533333 1992.533333 0 0 1 305.493333 23.04A341.333333 341.333333 0 0 0 853.333333 512l-2.986666-42.666667A672.426667 672.426667 0 0 0 512 384z m0-298.666667c235.648 0 426.666667 191.018667 426.666667 426.666667s-191.018667 426.666667-426.666667 426.666667S85.333333 747.648 85.333333 512 276.352 85.333333 512 85.333333z" p-id="8373"></path></svg>